<svg width="24" height="24" viewBox="0 0 24 24" fill="none" xmlns="http://www.w3.org/2000/svg">
<path fill-rule="evenodd" clip-rule="evenodd" d="M19.8399 18.1931C19.8399 21.4891 15.3199 21.8701 11.9209 21.8701L11.6777 21.8699C9.51211 21.8646 3.9999 21.7279 3.9999 18.1731C3.9999 14.9444 8.33825 14.5129 11.7114 14.4966L12.1641 14.4963C14.3295 14.5016 19.8399 14.6383 19.8399 18.1931ZM11.9209 15.9961C7.6599 15.9961 5.4999 16.7281 5.4999 18.1731C5.4999 19.6311 7.6599 20.3701 11.9209 20.3701C16.1809 20.3701 18.3399 19.6381 18.3399 18.1931C18.3399 16.7351 16.1809 15.9961 11.9209 15.9961ZM11.9209 1.9997C14.8489 1.9997 17.2299 4.3817 17.2299 7.3097C17.2299 10.2377 14.8489 12.6187 11.9209 12.6187H11.8889C8.9669 12.6097 6.5999 10.2267 6.60987 7.3067C6.60987 4.3817 8.9919 1.9997 11.9209 1.9997ZM11.9209 3.4277C9.7799 3.4277 8.03788 5.1687 8.03788 7.3097C8.0309 9.4437 9.7599 11.1837 11.8919 11.1917L11.9209 11.9057V11.1917C14.0609 11.1917 15.8019 9.4497 15.8019 7.3097C15.8019 5.1687 14.0609 3.4277 11.9209 3.4277Z" fill="black"/>
</svg>
